PathFileType	4	(X/Y/Z)	C:/Users/beibeiliu/ov580/test_trc/User3\sequence.29_training_dense_left.trc
DataRate	CameraRate	NumFrames	NumMarkers	Units	OrigDataRate	OrigDataStartFrame	OrigNumFrames
120	120	21	19	mm	120	52	128
Frame#	Time	ThumbCMC			ThumbMCP			ThumbIP			ThumbTip			IndexMCP			IndexPIP			IndexTip			MiddleMCP			MiddlePIP			MiddleTip			RingMCP			RingPIP			RingTip			PinkyMCP			PinkyPIP			PinkyTip			BackHand1			BackHand2			BackHand3	
		X0	Y0	Z0	X1	Y1	Z1	X2	Y2	Z2	X3	Y3	Z3	X4	Y4	Z4	X5	Y5	Z5	X6	Y6	Z6	X7	Y7	Z7	X8	Y8	Z8	X9	Y9	Z9	X10	Y10	Z10	X11	Y11	Z11	X12	Y12	Z12	X13	Y13	Z13	X14	Y14	Z14	X15	Y15	Z15	X16	Y16	Z16	X17	Y17	Z17	X18	Y18	Z18	
51	0.425	-39.438	13.1928	27.4024	-20.5347	7.22372	-2.21854	-18.4381	-2.82818	-30.594	-33.2069	-20.6668	-51.5269	-80.337	38.9354	-37.2372	-78.4214	36.118	-69.947	-57.7577	9.55007	-74.517	-104.398	31.8771	-34.3533	-111.025	36.0701	-65.9803	-91.677	2.2176	-86.9125	-108.348	11.7864	-37.7108	-104.821	-0.710855	-67.8149	-84.4732	-25.1709	-65.2691	-111.51	-19.498	-30.5165	-92.4895	-35.0697	-48.8276	-70.3985	-43.6559	-35.2847	-105.877	8.94799	12.8496	-105.66	1.35796	41.9494	-79.4719	27.9727	25.4164	
52	0.433333	-50.4072	16.4274	21.5266	-31.7751	10.3783	-4.51962	-23.4818	1.85836	-40.2527	-35.9355	-20.6076	-52.0604	-95.9901	32.2677	-34.5696	-98.9925	34.1269	-67.7713	-74.5129	14.5503	-80.5021	-119.976	19.7124	-35.9221	-126.275	21.8979	-65.6557	-103.88	2.03019	-92.7193	-113.778	-7.40839	-37.7164	-103.323	-16.3949	-67.1921	-74.6642	-33.988	-62.2978	-104.31	-34.1037	-31.0426	-79.6946	-44.4688	-42.9913	-54.7978	-48.3506	-25.4469	-109.801	-1.93748	11.2702	-108.418	-7.58685	44.8403	-89.5616	24.0712	22.4328	
53	0.441667	-53.2102	20.6164	21.1769	-36.1832	13.9724	-12.6386	-26.0941	4.42037	-41.3949	-34.3395	-18.8657	-51.6642	-104.171	27.8469	-33.7264	-110.786	32.3581	-67.4125	-90.4792	22.793	-86.714	-122.082	11.6177	-39.6027	-129.235	5.84952	-71.697	-106.25	-10.2082	-95.6655	-108.149	-14.7266	-43.2653	-93.354	-29.515	-64.9619	-62.7536	-35.0692	-57.5553	-95.2847	-38.6516	-30.6315	-67.7467	-43.8975	-38.582	-45.8182	-40.5133	-20.6452	-113.685	-11.4635	15.1631	-107.587	-11.9976	42.2649	-95.4882	21.3129	20.8685	
54	0.45	-60.2776	23.9164	15.6987	-41.7127	18.5151	-10.5578	-29.4203	11.8851	-40.3664	-31.3145	-11.8298	-52.2996	-111.04	20.3785	-34.9916	-119.891	24.7652	-69.7477	-102.421	20.398	-90.4777	-121.428	-5.93223	-41.0946	-120.506	-9.67259	-76.194	-89.1205	-19.0509	-94.5181	-98.6833	-29.0112	-42.3176	-72.5829	-37.806	-59.6608	-47.6157	-30.7386	-43.3409	-81.7937	-44.0745	-31.0329	-55.161	-42.1967	-33.0491	-40.0716	-30.5366	-11.8184	-111.606	-19.7822	12.0472	-103.041	-20.8781	42.8235	-98.4326	14.8796	21.0056	
55	0.458333	-66.3599	22.1245	17.7981	-46.4751	23.2255	-12.6389	-35.0581	17.3388	-37.9592	-27.3433	-2.07838	-57.1388	-112.399	8.6538	-34.6425	-122.649	11.4744	-67.7849	-105.524	11.3138	-92.8445	-113.065	-16.041	-46.4827	-102.758	-20.0858	-80.1864	-67.0764	-22.6891	-83.3975	-87.7516	-31.808	-41.2078	-54.2126	-34.9635	-54.4827	-36.4615	-23.8098	-32.8222	-71.8753	-48.6791	-29.3542	-47.216	-39.7383	-33.2469	-31.7579	-25.677	-6.49745	-104.82	-26.3717	11.7806	-100.22	-24.4565	40.2659	-103.471	6.45131	23.8369	
56	0.466667	-74.9689	21.2231	17.0386	-55.7845	28.0922	-10.7453	-42.3576	27.7521	-38.1815	-29.7363	12.3609	-55.3531	-113.262	-3.29954	-39.2852	-118.069	-1.52472	-71.0274	-99.1889	3.15923	-92.9608	-98.3569	-27.1467	-53.3524	-74.8702	-24.9555	-78.2506	-40.8548	-14.7671	-64.1922	-76.3344	-38.2857	-40.463	-44.0009	-32.2227	-52.2892	-29.8532	-14.5809	-29.2998	-64.6441	-50.9497	-26.5696	-40.5244	-41.1939	-37.4861	-23.546	-23.1437	-15.9122	-97.9776	-42.0832	8.30912	-95.0321	-37.6855	43.3318	-104.06	-4.05343	18.7896	
57	0.475	-83.179	13.7744	21.4534	-69.1702	24.5121	-7.00487	-55.6455	25.1107	-37.0358	-41.4657	16.3318	-52.8947	-107.9	-15.2742	-48.207	-102.735	-13.3075	-78.3287	-78.2923	0.814074	-91.3088	-86.6354	-35.9895	-54.9878	-65.8642	-27.1174	-76.7728	-33.7318	-5.75428	-58.3623	-69.192	-44.445	-46.2529	-44.0367	-33.1078	-60.5697	-27.3847	-14.7048	-43.2417	-55.1557	-57.5118	-27.6883	-32.2891	-46.2418	-44.1695	-16.3909	-24.6422	-35.6596	-87.053	-50.219	10.0213	-90.5729	-44.0565	39.3076	-104.686	-18.9722	19.9652	
58	0.483333	-95.0003	8.67603	19.3289	-83.8767	19.7584	-9.68951	-74.0665	25.9833	-36.482	-56.2946	18.7816	-57.2764	-99.4261	-23.0568	-52.4866	-88.2276	-13.1144	-81.0246	-61.4502	9.25325	-84.5465	-82.5377	-44.6181	-54.2869	-63.636	-30.6566	-82.6582	-38.3143	-3.55945	-74.8001	-66.2328	-52.8886	-44.3853	-45.7798	-41.6246	-68.4709	-29.5257	-17.8731	-63.7073	-46.7848	-59.355	-29.5654	-32.7813	-50.0238	-50.2545	-15.1131	-25.1036	-54.3424	-81.9317	-54.3373	4.23263	-81.6166	-53.0905	37.6058	-103.276	-32.2929	15.1431	
59	0.491667	-105.672	-5.38498	17.7287	-101.858	8.51511	-12.4922	-93.1447	15.8565	-39.9713	-72.4701	13.2585	-57.6161	-95.0655	-30.9464	-60.8031	-85.5781	-11.0616	-83.5571	-69.0139	9.17311	-84.8951	-76.4154	-57.6051	-58.2178	-69.9176	-49.3053	-87.0004	-48.5865	-20.8838	-100.211	-57.3744	-58.1964	-49.0696	-46.0287	-46.9833	-75.9278	-30.1639	-19.5398	-83.8413	-37.2384	-52.958	-30.4066	-24.3325	-41.4512	-55.943	-17.071	-22.4378	-65.1479	-66.6773	-62.2708	6.93446	-69.8548	-61.0238	34.372	-101.541	-44.9114	12.1338	
60	0.5	-109.878	-22.5338	17.5731	-112.317	-8.5936	-11.8866	-103.947	2.10921	-44.0648	-83.357	4.33325	-55.5057	-90.6732	-43.8567	-55.6419	-86.9124	-27.3295	-83.4196	-77.8042	2.75844	-94.1234	-71.8666	-63.1931	-57.4392	-65.3317	-60.2643	-85.5822	-58.6812	-37.5388	-117.617	-47.8065	-56.3629	-49.038	-37.8842	-46.7174	-76.1842	-33.9445	-24.0115	-92.9074	-31.006	-43.5523	-33.7972	-20.7511	-30.1288	-53.8828	-16.0464	-10.7491	-68.6372	-57.3499	-63.2527	0.869546	-60.3515	-61.6444	34.6072	-87.3863	-56.7332	12.276	
61	0.508333	-106.867	-35.4458	17.324	-113.888	-21.2189	-11.6024	-106.865	-9.22264	-39.7227	-84.3085	-1.26164	-56.5807	-83.5441	-54.073	-54.785	-86.9875	-41.678	-84.7924	-90.2007	-17.932	-102.212	-60.5286	-65.2129	-58.4662	-55.7702	-62.6509	-87.8174	-54.2797	-50.313	-118.954	-36.3594	-49.5346	-47.2122	-33.1155	-37.2964	-74.683	-28.9514	-10.9826	-90.781	-21.3092	-33.4196	-34.1791	-20.9337	-14.1696	-50.9214	-26.055	7.97058	-58.739	-44.7964	-63.2006	1.05855	-48.9848	-62.9968	31.7496	-83.1589	-66.272	14.0317	
62	0.516667	-101.651	-42.5179	20.0339	-108.695	-30.1227	-12.2824	-104.11	-18.272	-35.8372	-83.7428	-8.27767	-54.9148	-80.7418	-60.2736	-55.9228	-86.6902	-54.1892	-81.9927	-88.0949	-34.4474	-106.63	-53.4268	-64.309	-56.0544	-51.6922	-61.5094	-87.7439	-45.5269	-51.8357	-116.197	-31.7911	-43.5502	-48.0498	-31.2723	-27.4619	-70.3634	-32.5718	4.7745	-80.0681	-19.9283	-27.8114	-29.9251	-22.6488	-4.08746	-41.2288	-32.6423	20.9826	-43.6326	-40.9861	-66.6291	6.51136	-45.0604	-65.7401	33.6924	-74.249	-69.4675	13.8145	
63	0.525	-95.6619	-47.0051	20.886	-106.474	-36.1624	-7.79842	-104.752	-24.8557	-34.4735	-90.3689	-12.329	-54.296	-76.1159	-62.6812	-52.6246	-82.5896	-59.1387	-82.1343	-87.7224	-46.5988	-106.83	-45.8116	-60.6248	-57.3439	-45.4692	-54.8446	-84.0092	-44.6644	-38.9031	-114.871	-30.1498	-39.1018	-43.214	-31.6753	-13.5608	-63.251	-36.5106	16.5044	-61.4339	-19.7042	-26.3155	-25.8289	-24.3095	0.864145	-31.5174	-42.2002	21.9738	-28.6266	-36.2213	-66.4808	5.28673	-34.2916	-68.7261	37.136	-68.7063	-73.4409	12.1955	
64	0.533333	-87.15	-50.2197	20.9855	-103.591	-39.714	-2.21207	-108.961	-29.8669	-35.4207	-100.618	-16.6397	-52.2666	-67.698	-62.2376	-53.4093	-75.0787	-60.299	-81.748	-81.6728	-52.3498	-102.924	-41.0148	-54.2371	-56.9829	-37.8185	-38.5677	-85.0225	-38.6098	-12.3243	-106.647	-22.9374	-28.816	-42.2413	-28.6785	-1.55639	-52.5219	-42.5751	25.3815	-39.6551	-16.2262	-20.1315	-23.5804	-23.6792	6.11948	-26.3187	-37.5531	25.7952	-15.4133	-26.437	-64.4294	5.62427	-29.4876	-66.5502	36.1791	-61.4736	-70.6972	13.5066	
65	0.541667	-82.458	-50.2914	21.4831	-97.9579	-42.5289	-5.98588	-108.003	-33.0724	-27.0243	-108.322	-22.6369	-51.0298	-61.5518	-60.282	-48.4752	-65.4108	-57.9071	-80.3868	-70.2656	-50.3559	-106.978	-36.0097	-46.4947	-57.55	-32.6754	-22.974	-80.0939	-36.1888	8.92121	-86.7041	-22.5708	-24.9427	-41.3796	-27.0052	5.51162	-45.6864	-37.992	27.1505	-26.2085	-8.98288	-17.1284	-25.3549	-13.9304	8.33477	-24.9194	-35.4288	23.7757	-16.1203	-20.8908	-62.6692	7.31601	-20.1876	-67.6969	33.5691	-52.2198	-71.1563	14.3831	
66	0.55	-81.6518	-50.8789	21.2923	-99.1932	-45.7078	-1.44687	-109.099	-37.4728	-28.526	-114.317	-27.528	-50.6835	-58.4512	-58.5035	-49.4681	-60.9543	-55.3459	-80.244	-63.8942	-43.6223	-106.406	-32.2894	-39.9963	-57.9879	-37.139	-15.904	-75.3328	-41.9897	23.1736	-63.091	-17.3997	-25.5778	-42.6796	-19.5103	4.74843	-47.5846	-33.9196	23.6575	-28.4496	0.147552	-24.2512	-25.1622	-6.18647	1.91814	-34.3397	-21.4291	22.4661	-20.1656	-18.8096	-64.2102	6.25746	-18.661	-65.6323	33.0269	-50.7896	-71.2781	13.8877	
67	0.558333	-82.5435	-49.5603	20.0196	-99.318	-44.0771	-1.80549	-111.768	-37.6744	-30.3924	-109.014	-25.9785	-53.3183	-54.3518	-53.6072	-53.048	-57.6691	-46.3732	-82.2417	-59.3677	-28.5349	-105.17	-32.3104	-36.7644	-57.1544	-34.8792	-6.349	-71.5778	-39.4576	23.4266	-50.7212	-15.0939	-31.2078	-46.6065	-17.132	0.607669	-54.7941	-29.6707	19.3408	-33.3173	4.15378	-29.4795	-31.8915	3.11828	-4.71007	-44.4386	-15.2825	15.6887	-32.4134	-18.3427	-64.3348	4.13182	-20.8888	-64.5776	30.1251	-51.8643	-67.9784	11.458	
68	0.566667	-82.6417	-36.2317	15.7434	-99.6001	-31.298	-8.80216	-103.869	-24.7022	-35.2247	-99.5592	-13.1993	-60.9117	-55.0913	-43.3869	-62.7693	-51.3451	-28.2441	-92.1648	-45.5483	-3.8604	-102.27	-30.4594	-36.8634	-64.7125	-25.9729	-8.12415	-78.3106	-30.7582	21.0151	-53.0882	-15.2518	-38.8618	-52.9055	-7.95151	-10.5976	-67.9687	-12.5101	13.1228	-46.9668	6.44347	-40.5412	-35.1167	9.40076	-20.8231	-56.1932	-1.78563	4.62809	-49.0583	-23.2205	-61.1903	-4.57386	-23.0101	-64.7045	25.7043	-54.5319	-58.8116	4.80018	
69	0.575	-73.1477	-11.2676	1.14142	-84.4157	-4.75312	-29.5452	-83.2471	0.174692	-58.556	-67.1605	4.73056	-79.1568	-53.2511	-26.772	-78.4476	-35.7532	-12.0091	-102.849	-20.2437	12.4406	-101.568	-27.412	-34.7507	-81.0724	-11.3069	-12.6152	-93.6982	-7.40395	13.9096	-61.9512	-13.8672	-45.0445	-66.7314	2.8958	-26.3205	-83.217	2.9085	0.504847	-62.0764	-2.14931	-53.4544	-48.6314	7.71896	-38.3831	-70.4303	14.309	-11.8322	-61.8241	-33.799	-59.0479	-14.26	-36.6473	-59.7588	15.4635	-62.5019	-42.1009	-9.14228	
70	0.583333	-49.6066	21.2047	-16.4019	-41.8436	25.4314	-44.4187	-30.3781	22.9828	-74.5865	-17.1989	8.07005	-91.9681	-36.5853	-2.02201	-94.4691	-13.256	-3.22411	-114.553	19.1511	1.70359	-96.4516	-28.0685	-20.0267	-96.5108	2.94268	-20.6186	-105.36	14.8724	-6.49716	-70.2112	-27.2188	-39.6428	-85.3772	4.62954	-33.9269	-94.227	11.8952	-23.3567	-62.2826	-28.3914	-53.7398	-70.7893	-6.10505	-51.5739	-85.601	13.311	-34.8174	-64.8768	-58.2812	-40.02	-41.1086	-68.0101	-35.002	-11.9268	-66.7489	-5.92291	-31.0473	
71	0.591667	-13.8457	8.97413	-5.51638	6.6779	0.2005	-23.4166	14.9638	-7.07864	-53.6418	15.7985	-18.6998	-78.1242	3.35864	9.22221	-80.7988	21.4689	-11.1828	-99.4023	26.7146	-39.6349	-82.7808	-5.30888	1.46734	-92.7248	11.6684	-26.3896	-101.083	3.67775	-44.149	-63.775	-20.3279	-9.81752	-93.0814	-9.10774	-34.6487	-99.4489	-13.6719	-48.1614	-64.1154	-44.9209	-15.0902	-84.2404	-25.5614	-34.4964	-96.3826	-18.9849	-55.1727	-72.8859	-54.0096	14.0976	-54.5182	-70.0398	18.966	-28.358	-31.3338	28.5031	-26.9961	
